<?xml version="1.0"?>
<svg width="808.45707" height="588.76601" xmlns="http://www.w3.org/2000/svg" xmlns:svg="http://www.w3.org/2000/svg" data-name="Layer 1">
 <g class="layer">
  <title>Layer 1</title>
  <path d="m329.3,319.24a6.15,6.15 0 0 1 -4.46,-10.65c0.16,-0.62 0.27,-1.06 0.43,-1.67q-0.09,-0.21 -0.17,-0.41c-5.66,-13.49 -24.84,-13.4 -30.45,0.12c-4.98,11.99 -11.32,24 -12.88,36.68a48.83,48.83 0 0 0 0.86,16.8a195.76,195.76 0 0 1 -17.81,-81.31a188.94,188.94 0 0 1 1.17,-21.08q0.98,-8.6 2.7,-17.09a198.03,198.03 0 0 1 39.27,-83.93a52.7,52.7 0 0 0 21.92,-22.74a40.2,40.2 0 0 0 3.65,-10.98c-1.06,0.14 -4.02,-16.11 -3.22,-17.11c-1.48,-2.25 -4.14,-3.38 -5.77,-5.58c-8.08,-10.95 -19.2,-9.04 -25.01,5.84c-12.41,6.27 -12.53,16.65 -4.92,26.64c4.85,6.36 5.51,14.96 9.76,21.77c-0.43,0.55 -0.89,1.1 -1.33,1.66a199.3,199.3 0 0 0 -20.8,32.95c1.65,-12.91 -0.79,-28.46 -4.95,-38.48c-4.73,-11.42 -13.6,-21.04 -21.42,-30.92c-9.39,-11.86 -28.63,-6.68 -30.29,8.36q-0.02,0.21 -0.04,0.43q1.74,0.98 3.4,2.09a8.34,8.34 0 0 1 -3.36,15.17l-0.17,0.02a82.95,82.95 0 0 0 2.19,12.41c-10.03,38.77 11.62,52.89 42.52,53.52c0.69,0.35 1.35,0.7 2.03,1.03a203.43,203.43 0 0 0 -10.95,51.54a192.95,192.95 0 0 0 0.14,31.15q-0.02,-0.18 -0.05,-0.37a50.98,50.98 0 0 0 -17.41,-29.44c-13.39,-11 -32.31,-15.05 -46.76,-23.89c-6.96,-4.26 -15.87,1.24 -14.66,9.3q0.03,0.2 0.06,0.39a56,56 0 0 1 6.28,3.03q1.74,0.98 3.41,2.08a8.34,8.34 0 0 1 -3.36,15.17l-0.17,0.03c-0.12,0.02 -0.23,0.03 -0.35,0.05a83.02,83.02 0 0 0 15.27,23.91c6.27,33.85 33.19,37.06 61.99,27.2l0.02,0a203.37,203.37 0 0 0 13.66,39.89l48.81,0c0.17,-0.55 0.33,-1.11 0.49,-1.65a55.45,55.45 0 0 1 -13.51,-0.8c3.62,-4.45 7.24,-8.92 10.86,-13.37a3.03,3.03 0 0 0 0.23,-0.26c1.84,-2.27 3.69,-4.53 5.53,-6.8l0,-0.01a81.22,81.22 0 0 0 -2.38,-20.69z" fill="#f2f2f2" id="svg_1" transform="matrix(1 0 0 1 0 0)"/>
  <path d="m696.47,499.55a2.66,2.66 0 0 1 -1.93,-4.62l0.18,-0.72q-0.04,-0.09 -0.07,-0.18a7.15,7.15 0 0 0 -13.2,0.05c-2.16,5.2 -4.91,10.41 -5.58,15.9a21.16,21.16 0 0 0 0.37,7.28a84.85,84.85 0 0 1 -7.72,-35.24a81.9,81.9 0 0 1 0.51,-9.14q0.42,-3.73 1.17,-7.41a85.84,85.84 0 0 1 17.02,-36.37a22.84,22.84 0 0 0 9.5,-9.86a17.43,17.43 0 0 0 1.58,-4.76c-0.46,0.06 -1.74,-6.99 -1.39,-7.42c-0.65,-0.98 -1.8,-1.46 -2.5,-2.42c-3.51,-4.74 -8.33,-3.92 -10.85,2.53c-5.38,2.72 -5.43,7.22 -2.13,11.55c2.1,2.76 2.39,6.49 4.23,9.43c-0.19,0.25 -0.38,0.48 -0.57,0.73a86.39,86.39 0 0 0 -9.02,14.28a35.91,35.91 0 0 0 -2.14,-16.68c-2.06,-4.95 -5.9,-9.12 -9.29,-13.4c-4.07,-5.14 -12.41,-2.9 -13.13,3.62q-0.01,0.09 -0.02,0.19q0.75,0.42 1.48,0.9a3.61,3.61 0 0 1 -1.46,6.58l-0.07,0.01a35.96,35.96 0 0 0 0.94,5.37c-4.34,16.81 5.04,22.93 18.44,23.21c0.29,0.15 0.58,0.3 0.88,0.44a88.18,88.18 0 0 0 -4.75,22.34a83.64,83.64 0 0 0 0.06,13.5l-0.02,-0.15a22.1,22.1 0 0 0 -7.55,-12.77c-5.8,-4.76 -14,-6.52 -20.27,-10.35a4.15,4.15 0 0 0 -6.35,4.03q0.01,0.08 0.03,0.17a24.27,24.27 0 0 1 2.72,1.31q0.75,0.43 1.48,0.9a3.61,3.61 0 0 1 -1.46,6.58l-0.08,0.01c-0.05,0.01 -0.09,0.02 -0.15,0.02a35.99,35.99 0 0 0 6.62,10.37c2.72,14.67 14.39,16.06 26.87,11.79l0.01,0a88.15,88.15 0 0 0 5.92,17.29l21.16,0c0.07,-0.24 0.14,-0.48 0.21,-0.72a24.04,24.04 0 0 1 -5.85,-0.34c1.57,-1.93 3.14,-3.87 4.7,-5.8a1.32,1.32 0 0 0 0.1,-0.11c0.8,-0.99 1.6,-1.97 2.4,-2.95l0,0a35.21,35.21 0 0 0 -1.03,-8.97z" fill="#f2f2f2" id="svg_2" transform="translate(-195.77147 -155.61699)"/>
  <path d="m825.27,532.5a6.48,6.48 0 0 0 -1.4,-8.93a6.22,6.22 0 0 0 -0.88,-0.53l2.91,-44.12l-14.78,2.56l3.29,44.89a6.46,6.46 0 0 0 2.12,7.6a6.18,6.18 0 0 0 8.65,-1.33q0.05,-0.07 0.09,-0.14z" fill="#a0616a" id="svg_3" transform="translate(-195.77147 -155.61699)"/>
  <polygon fill="#a0616a" id="svg_4" points="721.93 577.344 712.029 577.343 707.319 539.153 721.932 539.154 721.93 577.344"/>
  <path d="m918.05,743.29l-30.45,0l0,-0.39a11.85,11.85 0 0 1 11.85,-11.85l0,0l5.57,-4.22l10.37,4.22l2.66,0l0,12.24z" fill="#2f2e41" id="svg_5" transform="translate(-195.77147 -155.61699)"/>
  <polygon fill="#a0616a" id="svg_6" points="700.003 562.585 691.544 567.73 667.673 537.549 680.158 529.956 700.003 562.585"/>
  <path d="m901.44,726.85l-26.01,15.82l-0.2,-0.33a11.85,11.85 0 0 1 3.96,-16.29l0,0l2.56,-6.49l11.06,-1.79l2.27,-1.38l6.36,10.46z" fill="#2f2e41" id="svg_7" transform="translate(-195.77147 -155.61699)"/>
  <path d="m567.73,47.31l-566.73,0a1,1 0 0 1 0,-2l566.73,0a1,1 0 0 1 0,2z" fill="#e6e6e6" id="svg_8"/>
  <path d="m450.66,178.46l-334.81,0a10.34,15.84 0 0 0 0,31.69l334.81,0a10.34,15.84 0 1 0 0,-31.69z" fill="#3f3d56" id="svg_9" transform="matrix(1 0 0 1 0 0)"/>
  <ellipse cx="29.35" cy="8.65" fill="#e6e6e6" id="svg_11" rx="8.46" ry="8.65"/>
  <ellipse cx="58.57" cy="8.65" fill="#e6e6e6" id="svg_12" rx="8.46" ry="8.65"/>
  <ellipse cx="87.78" cy="8.65" fill="#e6e6e6" id="svg_13" rx="8.46" ry="8.65"/>
  <path d="m121.1,15.47a1,1 0 0 1 -0.72,-0.3l-5.71,-5.83a1,1 0 0 1 0,-1.4l5.71,-5.83a1,1 0 0 1 1.43,1.4l-5.02,5.13l5.02,5.14a1,1 0 0 1 -0.71,1.69z" fill="#e6e6e6" id="svg_14"/>
  <path d="m130.68,15.47a1,1 0 0 1 -0.71,-1.69l5.02,-5.14l-5.02,-5.13a1,1 0 1 1 1.43,-1.4l5.7,5.83a1,1 0 0 1 0,1.4l-5.7,5.83a1,1 0 0 1 -0.72,0.3z" fill="#e6e6e6" id="svg_15"/>
  <path d="m712.96,156.62l-10.61,0a2.19,2.19 0 0 0 -2.19,2.19l0,10.62a2.19,2.19 0 0 0 2.19,2.19l10.61,0a2.2,2.2 0 0 0 2.2,-2.19l0,-10.62a2.2,2.2 0 0 0 -2.2,-2.19z" fill="#e6e6e6" id="svg_16" transform="translate(-195.77147 -155.61699)"/>
  <path d="m686.96,156.62l-10.61,0a2.19,2.19 0 0 0 -2.19,2.19l0,10.62a2.19,2.19 0 0 0 2.19,2.19l10.61,0a2.2,2.2 0 0 0 2.2,-2.19l0,-10.62a2.2,2.2 0 0 0 -2.2,-2.19z" fill="#e6e6e6" id="svg_17" transform="translate(-195.77147 -155.61699)"/>
  <path d="m737.46,157.12l-10.61,0a2.19,2.19 0 0 0 -2.19,2.19l0,10.62a2.19,2.19 0 0 0 2.19,2.19l10.61,0a2.2,2.2 0 0 0 2.2,-2.19l0,-10.62a2.2,2.2 0 0 0 -2.2,-2.19z" fill="#e6e6e6" id="svg_18" transform="translate(-195.77147 -155.61699)"/>
  <path d="m522.54,161.16l-84.81,0a2.67,2.67 0 1 0 0,5.34l84.81,0a2.67,2.67 0 0 0 0,-5.34z" fill="#e6e6e6" id="svg_19" transform="translate(-195.77147 -155.61699)"/>
  <path d="m275.17,259.31l-151.2,0a27.9,15.5 0 0 0 0,31l151.2,0a27.9,15.5 0 0 0 0,-31z" fill="#6d45c3" id="svg_20" transform="matrix(1 0 0 1 0 0)"/>
  <path d="m605.34,461.93l-84,0a15.5,15.5 0 1 0 0,31l84,0a15.5,15.5 0 0 0 0,-31z" fill="#fff" id="svg_21"/>
  <path d="m486.31,291.31l-151.49,0a29.76,16.5 0 0 1 0,-33l151.49,0a29.76,16.5 0 0 1 0,33zm-151.49,-31a26.15,14.5 0 0 0 0,29l151.49,0a26.15,14.5 0 0 0 0,-29l-151.49,0z" fill="#6d45c3" id="svg_22" transform="matrix(1 0 0 1 0 0)"/>
  <path d="m763.5,520.19l-566.73,0a1,1 0 0 1 0,-2l566.73,0a1,1 0 0 1 0,2z" fill="#e6e6e6" id="svg_23" transform="translate(-195.77147 -155.61699)"/>
  <circle cx="24" cy="183.31" fill="#e6e6e6" id="svg_24" r="10"/>
  <circle cx="506" cy="113.31" fill="#e6e6e6" id="svg_25" r="10"/>
  <circle cx="118" cy="320.31" fill="#e6e6e6" id="svg_26" r="10"/>
  <path d="m24.05,231.79a69.25,69.25 0 0 1 39.73,-16.88a68.3,68.3 0 0 1 58.7,25.66c1.18,1.5 -0.93,3.64 -2.12,2.12a66.18,66.18 0 0 0 -33.1,-22.41a65.31,65.31 0 0 0 -61.09,13.63c-1.44,1.27 -3.57,-0.84 -2.12,-2.12z" fill="#3f3d56" id="svg_27"/>
  <path d="m138.34,228.69l8.85,24.18a1.51,1.51 0 0 1 -1.45,1.9l-28.29,-2.02c-1.91,-0.13 -1.93,-3.13 0,-3l28.29,2.02l-1.45,1.9l-8.84,-24.18c-0.66,-1.82 2.24,-2.6 2.89,-0.8z" fill="#3f3d56" id="svg_28"/>
  <path d="m720,358.31s8.19,16.26 5,24s2.61,67.68 -0.69,70.34s-5.44,0.53 -0.87,5.09s6.56,-0.43 5.56,6.57s-7,96 -7,96l-13.69,0.34s-17.31,-43.34 -14.31,-73.34l-17.13,-82.62s-2.47,14.72 -2.67,18.17s-2.2,4.45 -3.2,4.45c-5,0 -3.46,-0.89 -2.73,4.05s-8.23,44.53 -8.23,44.53l29.96,69.42l-10,10l-51.82,-75.8l-9.93,-77.06s-2.76,-7.73 0,-7.94s4.31,0.67 3.53,-2.27s15.22,-51.93 15.22,-51.93l83,18z" fill="#2f2e41" id="svg_29" transform="matrix(1 0 0 1 0 0)"/>
  <path d="m720.77,364.93c-2.31,5.35 -10.18,0.45 -28,2c-2.06,0.18 -4.09,0.27 -6.11,0.29c-11.95,0.13 -23.12,-2.14 -32.16,-2.81c-6.51,-0.49 -11.92,-0.15 -15.73,2.52c-10,7 -13.96,-14.66 -13.96,-14.66a27.38,27.38 0 0 1 3.96,-16.34c5,-8 10.12,-27.01 3,-34s-7.88,-17.99 -5,-21s12.34,-63.2 11,-73c-1.06,-7.73 10.88,-10.21 15.96,-10.91c1.36,-0.19 2.23,-0.25 2.23,-0.25l11.81,2.16l17,3l13.69,0.26s0.19,0.09 0.55,0.25a112.67,112.67 0 0 1 17.76,10.49c8.08,6.09 2.11,96.99 2.11,96.99s-1.11,27.07 4.89,33.01s-0.69,16.65 -3,22z" fill="#3f3d56" id="svg_30"/>
  <path d="m666,198.12l-23,1s-31,62 -27,66s8.09,1.73 3.04,6.87s-10.04,3.13 -7.04,7.13s7,-0.5 3,5.25s-1.12,51.94 -1.12,51.94l15.82,0s11.18,-38.8 10.24,-43.49s-1.06,-8.71 0,-10.2s26.06,-84.5 26.06,-84.5z" fill="#3f3d56" id="svg_31" transform="matrix(1 0 0 1 0 0)"/>
  <circle cx="681.17" cy="155.7" fill="#a0616a" id="svg_32" r="23.06"/>
  <path d="m701.14,169.56l-9.14,1.75s8.5,-13.72 8,-20c-0.5,-6.28 -7.34,-8.53 -7.34,-8.53s-3.79,0.82 -7.78,1.28a20.06,20.06 0 0 0 -1.85,-3.85a6.72,6.72 0 0 1 -1.96,4.14a10.94,10.94 0 0 1 -4.33,-0.5c-1.58,-0.72 -1.55,-1.97 -1.03,-3.14a41.62,41.62 0 0 0 -14.82,4.07a40.9,40.9 0 0 1 0.35,-9.2c0.22,-0.06 0.44,-0.13 0.66,-0.2a20.41,20.41 0 0 0 3.92,-1.71a6.75,6.75 0 0 1 -3.7,-1.74c0.84,-2.46 2.18,-4.59 4.29,-5.63a15.82,15.82 0 0 1 13.13,-0.35s-4.89,-3.57 -3.09,-5.03c0.12,0.12 0.24,0.23 0.37,0.34c0.17,0.14 0.36,0.29 0.54,0.43c1.11,0.9 2.77,-0.37 2.99,-1.73a4.59,4.59 0 0 1 0.1,-0.51c0.03,-0.14 0.07,-0.28 0.11,-0.41a3.39,3.39 0 0 1 0.12,-0.34c3.33,-0.8 13.4,2.45 17.27,9.61c0,0 27.05,13 3.19,41.25z" fill="#3f3d56" id="svg_33" transform="matrix(1 0 0 1 0 0)"/>
  <path d="m892.24,528.17a6.48,6.48 0 0 1 5.31,-7.32a6.22,6.22 0 0 1 1.02,-0.07l17.49,-40.61l11.99,9.01l-23.35,38.46a6.46,6.46 0 0 1 -5.34,5.81a6.18,6.18 0 0 1 -7.1,-5.12q-0.01,-0.08 -0.02,-0.16z" fill="#a0616a" id="svg_34" transform="translate(-195.77147 -155.61699)"/>
  <path d="m894.27,363.74l23,1s34,58 30,62s-8.08,1.73 -3.04,6.87s10.04,3.13 7.04,7.13s-7,-0.5 -3,5.25s-28.5,59.94 -28.5,59.94l-14,-7s13.63,-35.8 14.56,-40.49s1.07,-8.71 0,-10.2s-26.06,-84.5 -26.06,-84.5z" fill="#3f3d56" id="svg_35" transform="translate(-195.77147 -155.61699)"/>
  <path d="m703.24,197.82l-32.24,74.49l-13.04,-79.91c1.36,-0.19 2.23,-0.25 2.23,-0.25l5.55,-10.78l31.79,1.65l5.16,14.55s0.19,0.09 0.55,0.25z" fill="#6d45c3" id="svg_36"/>
  <path d="m886.66,519.22c-11.95,0.13 -23.12,-2.14 -32.16,-2.81l11.27,-56.48l20.89,59.29z" fill="#6d45c3" id="svg_37" transform="translate(-195.77147 -155.61699)"/>
  <path d="m748.56,743.19a1.19,1.19 0 0 0 1.19,1.19l253.29,0a1.19,1.19 0 0 0 0,-2.38l-253.29,0a1.19,1.19 0 0 0 -1.19,1.19z" fill="#ccc" id="svg_38" transform="translate(-195.77147 -155.61699)"/>
  <text fill="#ffffff" font-family="Monospace" font-size="20" id="svg_39" stroke-width="0" text-anchor="middle" transform="matrix(0.729662 0 0 1 -18.6262 0)" x="307.27" xml:space="preserve" y="280.23">check payment status</text>
  <text fill="#ffffff" font-family="Monospace" font-size="20" id="svg_40" stroke-width="0" text-anchor="middle" x="279.54" xml:space="preserve" y="200.23">check expenditure</text>
  <text fill="#7f00ff" font-family="Monospace" font-size="20" id="svg_41" stroke-width="0" text-anchor="middle" transform="matrix(0.875408 0 0 1 40.9378 0)" x="416.54" xml:space="preserve" y="282.23">receive feedback</text>
  <rect fill="#6d45c3" height="40" id="svg_43" transform="matrix(1 0 0 1 0 0)" width="252" x="440.54" y="60.23"/>
  <text fill="#ffffff" font-family="Monospace" font-size="20" id="svg_44" stroke-width="0" style="cursor: move;" text-anchor="middle" transform="matrix(1 0 0 1 0 0) matrix(0.784407 0 0 1 -55.5982 0)" x="789.31" xml:space="preserve" y="87.23">receive maintenance requests</text>
  <text fill="#3f007f" font-family="Monospace" font-size="20" id="svg_45" stroke-width="0" text-anchor="middle" x="186.54" xml:space="preserve" y="94.23">Realtime analysis</text>
  <text fill="#000000" font-family="Monospace" font-size="20" id="svg_47" stroke-width="0" text-anchor="middle" x="237.54" xml:space="preserve" y="498.23">Raf</text>
  <text fill="#7f00ff" font-family="Monospace" font-size="20" id="svg_48" stroke-width="0" text-anchor="middle" x="270.54" xml:space="preserve" y="499.23">iki</text>
 </g>
</svg>