<?xml version="1.0"?>
<svg width="1027.99206" height="529.55555" xmlns="http://www.w3.org/2000/svg" xmlns:svg="http://www.w3.org/2000/svg" data-name="Layer 1">
 <!-- Created with SVG-edit - https://github.com/SVG-Edit/svgedit-->
 <g class="layer">
  <title>Layer 1</title>
  <text fill="#000000" font-family="Serif" font-size="24" id="svg_1" stroke-width="0" text-anchor="middle" transform="matrix(1.53892 0 0 2.79692 -223.031 -407.548)" x="418.36" xml:space="preserve" y="216.74">Raf</text>
  <text fill="#7f00ff" font-family="Serif" font-size="24" id="svg_2" stroke-width="0" text-anchor="middle" transform="matrix(1 0 0 1 0 0) matrix(1.62502 0 0 2.65663 -265.641 -403.146)" x="453.01" xml:space="preserve" y="226.59">iki</text>
  <path d="m363.01,175.44c0.36,2.01 0.61,2.82 0.8,3.4c0.4,1.2 0.59,1.83 0.91,2.43c0.71,1.38 1.04,1.7 1.68,2.44c0.35,0.41 1.15,1.28 1.6,1.76c0.47,0.51 1.52,1.63 2.08,2.25c0.59,0.65 1.2,1.33 1.81,2.03c0.63,0.71 1.25,1.42 1.87,2.13c0.61,0.7 1.76,2.05 2.29,2.69c0.52,0.62 1.02,1.23 1.52,1.86c0.51,0.64 1.03,1.33 1.57,2.06c0.58,0.79 1.87,2.61 2.6,3.66c0.78,1.13 1.61,2.32 2.48,3.56c0.89,1.27 1.81,2.55 2.76,3.81c0.94,1.25 2.85,3.59 3.81,4.64c0.92,1 1.83,1.91 2.73,2.74c0.85,0.79 1.69,1.51 2.5,2.17c0.76,0.62 2.16,1.7 2.78,2.18c0.58,0.45 1.14,0.87 1.67,1.26c0.52,0.38 1.03,0.75 1.54,1.12c0.53,0.37 1.66,1.14 2.28,1.55c0.65,0.43 1.34,0.86 2.05,1.3c0.73,0.44 1.47,0.88 2.23,1.3c0.76,0.42 2.27,1.17 3.02,1.5c0.73,0.32 1.47,0.61 2.21,0.9c0.74,0.29 1.48,0.57 2.22,0.88c0.76,0.32 2.33,1.04 3.13,1.47c0.83,0.44 1.64,0.92 2.46,1.42c0.8,0.49 1.58,0.99 2.31,1.49c0.7,0.47 1.93,1.34 2.44,1.72c0.45,0.34 0.85,0.65 1.19,0.93c0.3,0.25 0.55,0.47 0.77,0.68c0.2,0.18 0.52,0.51 0.67,0.65c0.14,0.14 0.27,0.27 0.41,0.41c0.14,0.14 0.28,0.28 0.42,0.42c0.16,0.16 0.52,0.52 0.73,0.73c0.23,0.22 0.46,0.46 0.71,0.7c0.25,0.24 0.81,1.29 1.78,1.5c0.77,0.16 1.18,-1.16 1.36,-1.89c0.19,-0.79 0.35,-1.6 0.49,-2.69c0.11,-0.87 0.12,-1.67 0.12,-2.5c0.01,-1.03 0.01,-1.45 0.04,-2.45c0.02,-0.6 0.04,-1.27 0.13,-2.89c0.05,-0.95 0.12,-1.97 0.19,-3.06c0.08,-1.13 0.16,-2.27 0.25,-3.42c0.09,-1.13 0.17,-2.22 0.39,-4.19c0.09,-0.85 0.19,-1.62 0.3,-2.3c0.1,-0.62 0.2,-1.2 0.3,-1.73c0.1,-0.5 0.2,-0.99 0.4,-1.97c0.1,-0.51 0.2,-1.04 0.3,-1.59c0.19,-1.17 0.27,-1.8 0.35,-2.45c0.08,-0.68 0.2,-2.12 0.24,-2.88c0.04,-0.78 0.06,-1.57 0.05,-2.36c-0.01,-0.77 -0.08,-2.24 -0.19,-2.9c-0.19,-1.15 -0.55,-2.05 -1.08,-2.67c-0.55,-0.63 -0.98,-0.84 -2.16,-1.98c-0.48,-0.47 -0.96,-1.02 -1.46,-1.61c-0.53,-0.61 -1.06,-1.25 -1.6,-1.89c-0.54,-0.63 -1.04,-1.27 -2.11,-2.34c-0.48,-0.48 -1.4,-1.26 -1.84,-1.56c-0.78,-0.53 -1.49,-0.96 -2.73,-1.27c-0.76,-0.19 -1.54,-0.17 -2.74,-0.17c-0.7,0 -1.45,0 -2.23,0c-1.2,0 -1.98,0 -2.73,0c-1.01,0 -2.15,-0.35 -2.9,0.17c-0.72,0.5 -0.93,1.29 -1.45,2.03c-0.55,0.78 -1.42,0.83 -2.31,0.8c-0.92,-0.03 -1.74,-0.65 -2.25,-1.32c-0.41,-0.54 -0.84,-1.17 -1.57,-2.2c-0.52,-0.73 -0.8,-1.09 -1.32,-1.82c-0.49,-0.69 -1.17,-1.59 -1.59,-2.43c-0.41,-0.83 -0.68,-1.89 -0.87,-2.77c-0.11,-0.48 -0.31,-1.48 -0.43,-2c-0.24,-1.02 -0.5,-1.98 -0.85,-2.81c-0.31,-0.74 -0.85,-1.64 -1.49,-2.52c-0.49,-0.67 -0.86,-1.18 -1.22,-2.2c-0.23,-0.63 -0.49,-1.7 -0.8,-2.78c-0.19,-0.68 -0.41,-1.31 -0.64,-2.21c-0.26,-1.03 -0.32,-1.98 -0.53,-2.65c-0.31,-1.03 -0.84,-1.79 -1.13,-2.31c-0.56,-1.03 -0.7,-1.82 -0.71,-2.78c0,-0.81 0,-1.45 0,-2.56c0,-0.83 0,-1.71 0,-2.58c0,-0.83 0,-1.92 0,-2.77c0,-0.83 0.15,-1.9 0.54,-1.15c0.27,0.51 0.62,1.67 0.95,2.67c0.19,0.58 0.39,1.2 0.63,1.88c0.26,0.73 0.55,1.51 0.9,2.33c0.78,1.81 1.27,2.78 1.8,3.8c0.55,1.07 1.15,2.17 1.78,3.32c0.65,1.18 1.32,2.39 2,3.63c1.4,2.55 2.1,3.86 2.79,5.18c0.69,1.31 1.36,2.62 2.02,3.9c0.64,1.24 1.25,2.44 1.84,3.58c1.07,2.07 1.56,2.97 2,3.8c0.4,0.76 0.78,1.46 1.1,2.12c0.3,0.62 0.58,1.21 0.78,1.8c0.4,1.16 0.51,1.78 0.61,2.41c0.1,0.63 0.16,1.25 0.21,1.87c0.05,0.6 0.08,1.19 0.12,1.74c0.08,0.99 0.13,1.42 0.2,1.8c0.06,0.34 0.14,0.64 0.22,0.9c0.07,0.24 0.15,0.45 0.22,0.63c0.12,0.33 0.16,0.47 0.2,0.6c0.03,0.11 0.01,0.2 -0.13,-0.34c-0.16,-0.59 -0.29,-1.33 -0.43,-2.13c-0.2,-1.14 -0.25,-2.08 -0.41,-3.03c-0.13,-0.82 -0.47,-1.66 -0.75,-2.38l-0.3,-0.87l-0.29,-1l-0.17,-0.67" fill="none" id="svg_3" transform="matrix(1 0 0 1 0 0)"/>
 </g>
</svg>