<?xml version="1.0"?>
<svg width="336" height="235.2" xmlns="http://www.w3.org/2000/svg" xmlns:svg="http://www.w3.org/2000/svg" xmlns:xlink="http://www.w3.org/1999/xlink" enable-background="new 0 0 336 235.2" version="1.1" xml:space="preserve">
 <style type="text/css">.st0{fill:#EAECF0;}
	.st1{fill:#FFFFFF;}
	.st2{fill:#34525C;}
	.st3{fill:#E6E6E6;}
	.st4{fill:#70E9F4;}
	.st5{fill:none;}</style>
 <defs>
  <symbol height="24" id="svg_178" width="24" xmlns="http://www.w3.org/2000/svg"/>
 </defs>
 <g class="layer">
  <title>Layer 1</title>
  <g id="svg_3" transform="matrix(1 0 0 1 0 0)">
   <polyline class="st1" id="svg_4" points="246.52261352539062,193.8000030517578 246.52261352539062,207.8000030517578 109.47740173339844,207.8000030517578 109.47740173339844,32.70000076293945 246.52261352539062,32.70000076293945 246.52261352539062,105.69999694824219 "/>
   <polygon class="st2" id="svg_5" points="247.60000610351562,208.8000030517578 108.4000015258789,208.8000030517578 108.4000015258789,31.700000762939453 247.60000610351562,31.700000762939453 247.60000610351562,105.69999694824219 245.44520568847656,105.69999694824219 245.44520568847656,33.70000076293945 110.55480194091797,33.70000076293945 110.55480194091797,206.8000030517578 245.44520568847656,206.8000030517578 245.44520568847656,193.8000030517578 247.60000610351562,193.8000030517578 "/>
  </g>
  <g id="svg_1">
   <g id="svg_2"/>
  </g>
  <g id="svg_6">
   <rect class="st3" height="14.1" id="svg_7" width="125.2" x="105.4" y="31.7"/>
  </g>
  <g id="svg_8">
   <circle class="st1" cx="113.3" cy="38.7" id="svg_9" r="2.7"/>
   <path class="st2" d="m113.3,42.4c-2,0 -3.7,-1.7 -3.7,-3.7c0,-2 1.7,-3.7 3.7,-3.7c2,0 3.7,1.7 3.7,3.7c0,2.1 -1.7,3.7 -3.7,3.7zm0,-5.3c-0.9,0 -1.7,0.8 -1.7,1.7c0,0.9 0.8,1.7 1.7,1.7s1.7,-0.8 1.7,-1.7c0,-1 -0.8,-1.7 -1.7,-1.7z" id="svg_10"/>
  </g>
  <g id="svg_11">
   <circle class="st1" cx="123.4" cy="38.7" id="svg_12" r="2.7"/>
   <path class="st2" d="m123.4,42.4c-2,0 -3.7,-1.7 -3.7,-3.7c0,-2 1.7,-3.7 3.7,-3.7s3.7,1.7 3.7,3.7c0,2.1 -1.6,3.7 -3.7,3.7zm0,-5.3c-0.9,0 -1.7,0.8 -1.7,1.7c0,0.9 0.8,1.7 1.7,1.7s1.7,-0.8 1.7,-1.7c0,-1 -0.7,-1.7 -1.7,-1.7z" id="svg_13"/>
  </g>
  <g id="svg_14">
   <circle class="st1" cx="133.6" cy="38.7" id="svg_15" r="2.7"/>
   <path class="st2" d="m133.6,42.4c-2,0 -3.7,-1.7 -3.7,-3.7c0,-2 1.7,-3.7 3.7,-3.7c2,0 3.7,1.7 3.7,3.7c-0.1,2.1 -1.7,3.7 -3.7,3.7zm0,-5.3c-0.9,0 -1.7,0.8 -1.7,1.7c0,0.9 0.8,1.7 1.7,1.7s1.7,-0.8 1.7,-1.7c-0.1,-1 -0.8,-1.7 -1.7,-1.7z" id="svg_16"/>
  </g>
  <g id="svg_17">rent due</g>
  <g id="svg_19" transform="matrix(1 0 0 1 0 0)">
   <g id="svg_20">
    <rect class="st1" height="17.9" id="svg_21" width="55.4" x="190.3" y="109.9"/>
    <path class="st2" d="m246.7,128.8l-57.4,0l0,-19.9l57.4,0l0,19.9zm-55.4,-2l53.4,0l0,-15.9l-53.4,0l0,15.9z" id="svg_22"/>
   </g>
  </g>
  <g id="svg_23">
   <g id="svg_24">
    <rect class="st1" height="17.9" id="svg_25" width="55.4" x="163.3" y="176.1"/>
    <path class="st2" d="m219.7,194.9l-57.4,0l0,-19.9l57.4,0l0,19.9zm-55.4,-2l53.4,0l0,-15.9l-53.4,0l0,15.9z" id="svg_26"/>
   </g>
  </g>
  <g id="svg_27" transform="matrix(1 0 0 1 0 0)">
   <rect class="st2" height="2.1" id="svg_28" width="49.1" x="168.3" y="77.4"/>
  </g>
  <g id="svg_29">
   <rect class="st2" height="2.1" id="svg_30" width="36.2" x="181.2" y="72.8"/>
  </g>
  <g id="svg_31">
   <rect class="st2" height="2.1" id="svg_32" width="15.8" x="126.5" y="101.8"/>
  </g>
  <g id="svg_33">
   <rect class="st2" height="2.1" id="svg_34" width="27" x="126.5" y="111.2"/>
  </g>
  <g id="svg_35">
   <rect class="st2" height="2.1" id="svg_36" width="19.1" x="134.4" y="116"/>
  </g>
  <g id="svg_37">
   <rect class="st2" height="2.1" id="svg_38" width="31.5" x="123.5" y="80.5"/>
  </g>
  <g id="svg_39">
   <rect class="st2" height="2.1" id="svg_40" width="37.3" x="116" y="186.2"/>
  </g>
  <g id="svg_41">
   <rect class="st2" height="2.1" id="svg_42" width="10.3" x="143.3" y="176.6"/>
  </g>
  <g id="svg_43">
   <rect class="st2" height="2.1" id="svg_44" width="30.1" x="123.4" y="191.1"/>
  </g>
  <g id="svg_45">
   <rect class="st2" height="2.1" id="svg_46" width="42.1" x="116" y="181.5"/>
  </g>
  <g id="svg_47">
   <rect class="st2" height="2.1" id="svg_48" width="15.8" x="187" y="131.4"/>
  </g>
  <g id="svg_49">
   <rect class="st2" height="2.1" id="svg_50" width="27" x="187" y="140.7"/>
  </g>
  <g id="svg_51">
   <rect class="st2" height="2.1" id="svg_52" width="19.1" x="194.9" y="145.6"/>
  </g>
  <g id="svg_53" transform="matrix(1 0 0 1 0 0)">
   <rect class="st2" height="2.1" id="svg_54" width="31.5" x="165" y="262"/>
  </g>
  <g id="svg_55">
   <rect class="st2" height="2.1" id="svg_56" width="15.8" x="187" y="150.5"/>
  </g>
  <g id="svg_57">
   <rect class="st2" height="2.1" id="svg_58" width="19.3" x="187" y="159.9"/>
  </g>
  <g id="svg_59">
   <rect class="st2" height="2.1" id="svg_60" width="11.4" x="194.9" y="164.7"/>
  </g>
  <g id="svg_61">
   <rect class="st2" height="2.1" id="svg_62" width="31.5" x="187" y="155.2"/>
  </g>
  <g id="svg_63">
   <rect class="st2" height="2.1" id="svg_64" width="15.8" x="178.3" y="18.9"/>
  </g>
  <g id="svg_65">
   <rect class="st2" height="2.1" id="svg_66" width="50.6" x="135.5" y="14.3"/>
  </g>
  <g id="svg_67">
   <rect class="st2" height="2.1" id="svg_68" width="15.8" x="135.5" y="218.7"/>
  </g>
  <g id="svg_69">
   <rect class="st2" height="2.1" id="svg_70" width="50.6" x="143.4" y="223.4"/>
  </g>
  <g id="svg_71">
   <rect class="st2" height="2.1" id="svg_72" width="10.2" x="20" y="126.6"/>
  </g>
  <g id="svg_73">
   <rect class="st2" height="2.1" id="svg_74" width="17.4" x="12.7" y="117.2"/>
  </g>
  <g id="svg_75">
   <rect class="st2" height="2.1" id="svg_76" width="12.3" x="12.7" y="112.4"/>
  </g>
  <g id="svg_77">
   <rect class="st2" height="2.1" id="svg_78" width="17.4" x="13.7" y="123"/>
  </g>
  <g id="svg_79">
   <rect class="st2" height="2.1" id="svg_80" width="39.8" x="276.4" y="100.3"/>
  </g>
  <g id="svg_81">
   <rect class="st2" height="2.1" id="svg_82" width="22.9" x="276.4" y="95.5"/>
  </g>
  <g id="svg_83">
   <rect class="st2" height="2.1" id="svg_84" width="39.8" x="276.4" y="105"/>
  </g>
  <g id="svg_85">
   <rect class="st2" height="2.1" id="svg_86" width="27.7" x="133.2" y="140.4"/>
  </g>
  <g id="svg_87">
   <rect class="st2" height="2.1" id="svg_88" width="20.2" x="133.2" y="149.8"/>
  </g>
  <g id="svg_89">
   <rect class="st2" height="2.1" id="svg_90" width="34.8" x="133.2" y="145"/>
  </g>
  <g id="svg_91">
   <rect class="st1" height="7.6" id="svg_92" width="114.6" x="111.2" y="50.1"/>
   <path class="st2" d="m226.9,58.7l-116.7,0l0,-9.6l116.6,0l0,9.6l0.1,0zm-114.7,-2l112.6,0l0,-5.6l-112.6,0l0,5.6z" id="svg_93"/>
  </g>
  <g id="svg_94">
   <rect class="st2" height="2.1" id="svg_95" width="20.7" x="201.6" y="52.9"/>
  </g>
  <g id="svg_96">
   <ellipse class="st1" cx="231.1" cy="153.3" id="svg_97" rx="4.5" ry="18"/>
  </g>
  <g id="svg_100">
   <path class="st4" d="m572.2,6.3c0,0 0.1,0 0.1,0.1c0.1,-5.2 0.1,-10.4 0.1,-15.6c0,-7.1 11,-7.1 11,0c0,3 0,6.1 0,9.1c4,-0.8 8.2,0.4 12.2,1.6c1.1,0.3 2,1 2.7,1.8c2.5,-4 4,-8.8 4,-13.9c0,-14.5 -11.7,-26.2 -26.2,-26.2c-14.5,0 -26.2,11.7 -26.2,26.2c0,10.2 5.8,19 14.3,23.4c-1.8,-4.7 3.7,-8.6 8,-6.5z" fill="#7f00ff" id="svg_101"/>
  </g>
  <g id="svg_102" transform="matrix(1 0 0 1 0 0)">
   <path class="st5" d="m464.2,-60.9c-0.2,0 -0.4,-0.1 -0.5,-0.1c-1,0 -1.9,0.6 -2.4,1.5c-0.2,0.4 -0.3,0.9 -0.3,1.4c0,0.8 0,1.1 0,1.1c0,0 0,-0.2 0,-0.5c0,0.2 0,0.4 -0.1,0.7c-0.1,0.3 -0.4,0.5 -0.8,0.5c0,0 -0.1,0 -0.1,0c-0.4,-0.1 -0.7,-0.3 -0.7,-0.7c0,-0.2 0,-0.3 0,-0.5c0,-1.4 0,-1.9 0,-1.9l0,1.4c0,0 0,-0.5 0,-1.9c0,-1.3 -0.7,-2.3 -1.8,-2.7c-0.3,-0.1 -0.6,-0.1 -0.9,-0.1c-0.8,0 -1.6,0.4 -2.1,1c-0.4,0.5 -0.5,1.1 -0.6,1.7c0,0.2 0,0.5 0,0.9c0,0 0,0.1 0,0.1l0,0c0,0.6 -0.3,0.9 -0.8,0.9c0,0 -0.1,0 -0.1,0c-0.4,0 -0.8,-0.3 -0.8,-0.8c0,-0.1 0,-0.3 0,-0.4c0,-1.4 0,-1.9 0,-1.9l0,1.4c0,0 0,-0.5 0,-1.9c0,-1.5 -0.6,-2.3 -2,-2.8c0,0 -0.1,0 -0.1,-0.1c-0.4,0 -0.7,0 -1.1,0c-0.3,0.2 -0.7,0.3 -1,0.5c-0.8,0.6 -1.1,1.4 -1.1,2.3c0,1.4 0,1.9 0,1.9l0,-1.3c0,0 0,0.5 0,1.9c0,0.2 0,0.5 -0.1,0.7c-0.1,0.3 -0.4,0.5 -0.7,0.5c0,0 0,0 -0.1,0c-0.4,0 -0.6,-0.2 -0.7,-0.6c-0.1,-0.2 -0.1,-0.4 -0.1,-0.7c0,-4.2 0,-11.2 0,-15.4c0,-1.5 -0.9,-2.5 -2.3,-2.7c-0.1,0 -0.2,0 -0.3,0c-1.2,0 -2.5,1.1 -2.6,2.3c0,0.3 0,0.5 0,0.8c0,6.9 0,16.7 0,23.6c0,0.1 0,0.3 0,0.4c0,0 -0.1,0 -0.1,0c-0.1,-0.2 -0.2,-0.3 -0.4,-0.5c-1.1,-1.5 -2.2,-3 -3.3,-4.5c-0.7,-0.9 -1.6,-1.4 -2.6,-1.4c-0.2,0 -0.5,0 -0.7,0.1c-1.7,0.3 -2.8,2.2 -2.3,3.9c0.1,0.4 0.3,0.8 0.5,1.2c2.7,4.2 5.5,8.3 8.3,12.5c2.2,3.4 5.4,5.3 9.4,6c0.9,0.2 1.7,0.2 2.6,0.4c1.1,0 2.1,0 3.2,0c0.8,-0.1 1.5,-0.2 2.3,-0.4c4.8,-0.8 8.4,-4.4 9.2,-9.1c0.2,-1.1 0.3,-2.2 0.3,-3.3c0,-7.6 0,-5.1 0,-12.8c-0.1,-1.3 -0.9,-2.3 -2.2,-2.6z" id="svg_103"/>
  </g>
  <g id="svg_107">
   <g id="svg_108">
    <path class="st2" d="m231.2,166.58c1.2,3.1 8.7,5.23 16.7,4.73c1.9,-0.12 3.7,-0.35 5.3,-0.74c0.7,-0.16 1.7,-0.08 2.2,0.19c0.4,0.27 0.2,0.66 -0.5,0.85c-2,0.47 -4.1,0.78 -6.4,0.89c-9.7,0.58 -18.8,-2.02 -20.3,-5.77c-0.3,-0.85 -0.3,-1.71 0.2,-2.56c0.2,-0.27 0.8,-0.47 1.5,-0.47c0.1,0 0.2,0 0.3,0c0.8,0.08 1.4,0.39 1.2,0.74c-0.4,0.74 -0.5,1.43 -0.2,2.13z" id="svg_109"/>
   </g>
   <g id="svg_110">
    <path class="st2" d="m234.4,162.08c-0.6,0.27 -1.5,0.31 -2.2,0.08c-0.7,-0.23 -0.8,-0.58 -0.2,-0.85c0.8,-0.35 1.6,-0.66 2.6,-0.97c-0.1,0 -0.2,-0.04 -0.4,-0.04c0.7,0.08 2.8,0.27 4.2,0.04l0,0.89l0,-0.43c-1.6,0.35 -2.9,0.78 -4,1.28z" id="svg_111"/>
   </g>
   <g id="svg_112">
    <path class="st2" d="m261.2,169.06c-0.4,0.31 -1.4,0.39 -2.1,0.23c-0.8,-0.16 -1,-0.54 -0.6,-0.81c1.6,-1.12 2.1,-2.36 1.6,-3.6c-0.3,-0.78 -1,-1.51 -2.1,-2.13c1.4,0.19 2.8,0.08 3.6,0c0.8,0.62 1.3,1.28 1.6,1.98c0.6,1.47 -0.1,2.98 -2,4.34z" id="svg_113"/>
   </g>
  </g>
  <g id="svg_114">
   <path class="st1" d="m81.5,18l-59.6,0c-1.5,0 -2.6,1 -2.6,2.2l0,42.5c0,0 0,0.1 0,0.1c0,0.1 0,0.2 0,0.3c0,0.1 0,0.1 0,0.2c0,0.1 0,0.1 0.1,0.2c0,0.1 0,0.1 0.1,0.2c0,0 0.1,0.1 0.1,0.2l0.1,0.1c0,0 0.1,0.1 0.1,0.1c0.1,0.1 0.1,0.1 0.2,0.2c0.1,0.1 0.1,0.1 0.2,0.2c0,0 0,0 0.1,0.1c0.2,0.2 0.5,0.3 0.7,0.3c0,0 0.1,0 0.1,0c0.3,0.1 0.5,0.1 0.8,0.1l59.6,0l0,0c0.3,0 0.5,0 0.8,-0.1c0,0 0.1,0 0.1,0c0.2,-0.1 0.5,-0.2 0.7,-0.3l0.1,-0.1c0.1,-0.1 0.1,-0.1 0.2,-0.1c0.1,-0.1 0.1,-0.1 0.2,-0.2c0,-0.1 0.1,-0.1 0.1,-0.2c0,-0.1 0.1,-0.1 0.1,-0.2l0.1,-0.2c0,-0.1 0,-0.1 0.1,-0.2c0,-0.1 0,-0.1 0,-0.2c0,-0.1 0,-0.2 0,-0.2l0,-42.6c0.1,-1.4 -1.1,-2.4 -2.5,-2.4zm-57,9.9l0,-5.5l54.3,0l0,5.5l-27.1,15.9l-27.2,-15.9zm19,16.5l6.7,3.9c0.9,0.5 2.1,0.5 3,0l6.7,-3.9l16,16.1l-48.4,0l16,-16.1zm-4.3,-2.5l-14.7,14.7l0,-23.3l14.7,8.6zm39.6,-8.6l0,23.3l-14.6,-14.7l14.6,-8.6zm-58.4,30.8l0,0l0,0l0,0zm63.3,-1.4l0,0l0,0l0,0z" id="svg_115"/>
   <path class="st2" d="m81.5,65.9l-59.6,0c-0.4,0 -0.7,-0.1 -1.1,-0.2c0,0 -0.1,0 -0.1,0c-0.4,-0.1 -0.7,-0.3 -1,-0.5c-0.1,0 -0.2,-0.1 -0.2,-0.2c0,0 -0.1,-0.1 -0.2,-0.2c-0.1,-0.1 -0.2,-0.2 -0.3,-0.3c0,0 -0.1,-0.1 -0.1,-0.1l-0.1,-0.1c-0.1,-0.2 -0.1,-0.2 -0.2,-0.3c-0.1,-0.1 -0.1,-0.2 -0.1,-0.3c-0.1,-0.1 -0.1,-0.2 -0.1,-0.3c0,-0.1 0,-0.2 -0.1,-0.3c0,-0.1 0,-0.2 0,-0.3l0,-0.3l0,-42.3c0,-1.8 1.6,-3.2 3.6,-3.2l59.6,0c2,0 3.6,1.4 3.6,3.2l0,42.6c0,0.2 0,0.3 0,0.4c0,0.1 0,0.2 -0.1,0.3c0,0.1 0,0.1 -0.1,0.2l-0.1,0.3c-0.1,0.2 -0.2,0.3 -0.2,0.4c-0.1,0.1 -0.1,0.2 -0.2,0.2c-0.1,0.1 -0.2,0.2 -0.3,0.3c-0.1,0.1 -0.2,0.1 -0.2,0.2l-0.2,0.2c-0.3,0.2 -0.6,0.3 -1,0.5c-0.1,0 -0.2,0.1 -0.3,0.1c-0.2,0 -0.6,0 -0.9,0l0,0zm0.5,-2.1l0.4,0.9l-0.3,-1c0.2,0 0.3,-0.1 0.5,-0.2l0.4,-0.4c0,0 0,-0.1 0.1,-0.1l0.1,-0.3l0,-42.7c0,-0.7 -0.7,-1.2 -1.6,-1.2l-59.7,0c-0.9,0 -1.6,0.6 -1.6,1.2l0,42.6c0,0 0,0.1 0,0.1c0,0.1 0,0.1 0.1,0.2l-0.8,0.6l0.9,-0.5c0,0 0,0.1 0.1,0.1l0.1,0.1c0.1,0.1 0.1,0.1 0.2,0.2l0.1,0.1c0.1,0.1 0.3,0.2 0.5,0.2c0.3,0.1 0.4,0.1 0.6,0.1l59.6,0c-0.1,0.1 0.1,0.1 0.3,0zm-3.8,-2.3l-53.1,0l18.2,-18.3l7.3,4.3c0.6,0.3 1.4,0.3 2,0l7.3,-4.3l18.3,18.3zm-48.3,-2l43.5,0l-13.7,-13.8l-6,3.5c-1.2,0.7 -2.8,0.7 -4,0l-6,-3.5l-13.8,13.8zm-6.4,-0.5l0,-27.5l17.3,10.1l-17.3,17.4zm2,-24l0,19.2l12,-12.1l-12,-7.1zm54.3,24l-17.3,-17.3l17.3,-10.1l0,27.4zm-14,-16.9l12,12.1l0,-19.2l-12,7.1zm-14.1,2.9l-28.2,-16.6l0,-7.1l56.3,0l0,7.1l-28.1,16.6zm-26.2,-17.7l26.2,15.3l26.2,-15.3l0,-3.9l-52.4,0l0,3.9z" id="svg_116"/>
  </g>
  <g id="svg_117">
   <path class="st1" d="m174.7,127.5l-48.8,0c-1.2,0 -2.2,1 -2.2,2.2l0,32.9c0,1.2 1,2.2 2.2,2.2l5.7,0l0,5.8c0,0.8 0.5,1.6 1.2,1.9c0.3,0.2 0.6,0.2 1,0.2c0.5,0 0.9,-0.2 1.3,-0.4l9.9,-7.5l29.9,0c1.2,0 2.2,-1 2.2,-2.2l0,-32.9c-0.3,-1.3 -1.2,-2.2 -2.4,-2.2zm-41.1,32.9l-5.6,0l0,-28.6l44.5,0l0,28.6l-28.4,0c-0.5,0 -0.9,0.2 -1.3,0.4l-7,5.3l0,-3.6c0,-1.1 -1,-2.1 -2.2,-2.1z" id="svg_118"/>
   <path class="st2" d="m133.6,173.7c-0.5,0 -1,-0.1 -1.4,-0.3c-1.1,-0.5 -1.7,-1.6 -1.7,-2.8l0,-4.8l-4.7,0c-1.7,0 -3.2,-1.4 -3.2,-3.2l0,-32.9c0,-1.7 1.4,-3.2 3.2,-3.2l48.8,0c1.7,0 3.2,1.4 3.2,3.2l0,32.9c0,1.7 -1.4,3.2 -3.2,3.2l-29.5,0l-9.6,7.3c-0.5,0.4 -1.2,0.6 -1.9,0.6zm-7.8,-45.2c-0.6,0 -1.2,0.5 -1.2,1.2l0,32.9c0,0.6 0.5,1.2 1.2,1.2l6.7,0l0,6.8c0,0.4 0.2,0.8 0.6,1c0.4,0.2 0.9,0.2 1.2,-0.1l10.1,-7.7l30.2,0c0.6,0 1.2,-0.5 1.2,-1.2l0,-32.9c0,-0.6 -0.5,-1.2 -1.2,-1.2l-48.8,0zm9,39.7l0,-5.6c0,-0.6 -0.5,-1.2 -1.2,-1.2l-6.6,0l0,-30.6l46.5,0l0,30.6l-29.4,0c-0.3,0 -0.5,0.1 -0.7,0.2l-8.6,6.6zm-5.8,-8.8l4.7,0c1.7,0 3.2,1.4 3.2,3.2l0,1.6l5.4,-4.1c0.5,-0.4 1.2,-0.6 1.9,-0.6l27.4,0l0,-26.6l-42.6,0l0,26.5z" id="svg_119"/>
  </g>
  <g id="svg_120">
   <rect class="st1" height="68.2" id="svg_121" width="75.1" x="40.7" y="85.7"/>
   <path class="st2" d="m116.8,154.9l-77.1,0l0,-70.2l77.1,0l0,70.2zm-75.1,-2l73.1,0l0,-66.2l-73.1,0l0,66.2z" id="svg_122"/>
  </g>
  <g id="svg_123">
   <rect class="st3" height="14.1" id="svg_124" width="72.9" x="41.7" y="86.8"/>
  </g>
  <g id="svg_125">
   <circle class="st1" cx="49.6" cy="93.8" id="svg_126" r="2.7"/>
   <path class="st2" d="m49.6,97.5c-2,0 -3.7,-1.7 -3.7,-3.7c0,-2 1.7,-3.7 3.7,-3.7c2,0 3.7,1.7 3.7,3.7c-0.1,2 -1.7,3.7 -3.7,3.7zm0,-5.4c-0.9,0 -1.7,0.8 -1.7,1.7c0,0.9 0.8,1.7 1.7,1.7s1.7,-0.8 1.7,-1.7c-0.1,-0.9 -0.8,-1.7 -1.7,-1.7z" id="svg_127"/>
  </g>
  <g id="svg_128">
   <circle class="st1" cx="59.7" cy="93.8" id="svg_129" r="2.7"/>
   <path class="st2" d="m59.7,97.5c-2,0 -3.7,-1.7 -3.7,-3.7c0,-2 1.7,-3.7 3.7,-3.7c2,0 3.7,1.7 3.7,3.7c0,2 -1.7,3.7 -3.7,3.7zm0,-5.4c-0.9,0 -1.7,0.8 -1.7,1.7c0,0.9 0.8,1.7 1.7,1.7c0.9,0 1.7,-0.8 1.7,-1.7c0,-0.9 -0.8,-1.7 -1.7,-1.7z" id="svg_130"/>
  </g>
  <g id="svg_131">
   <circle class="st1" cx="69.8" cy="93.8" id="svg_132" r="2.7"/>
   <path class="st2" d="m69.8,97.5c-2,0 -3.7,-1.7 -3.7,-3.7c0,-2 1.7,-3.7 3.7,-3.7c2,0 3.7,1.7 3.7,3.7c0,2 -1.7,3.7 -3.7,3.7zm0,-5.4c-0.9,0 -1.7,0.8 -1.7,1.7c0,0.9 0.8,1.7 1.7,1.7c0.9,0 1.7,-0.8 1.7,-1.7c0,-0.9 -0.8,-1.7 -1.7,-1.7z" id="svg_133"/>
  </g>
  <g id="svg_139">
   <polyline class="st1" id="svg_140" points="271.6,22 272,36.1 255.3,38.3  "/>
  </g>
  <g id="svg_141" transform="matrix(1 0 0 1 0 0)">
   <polyline class="st4" fill="#7f00ff" id="svg_142" points="645,74.4000015258789 669.6000366210938,76.79999542236328 671,132.5 624.6000366210938,131.60000610351562 626,93.30000305175781 646.5,93.4000015258789 "/>
  </g>
  <g id="svg_143">
   <path class="st1" d="m445.6,23.9l-23.3,0c-1,0 -2,0.4 -2.8,1.1l-17.7,17.7c-0.7,0.7 -1.1,1.7 -1.1,2.8l0,37c0,2.2 1.8,3.9 3.9,3.9l41,0c2.2,0 3.9,-1.8 3.9,-3.9l0,-54.7c0,-2.1 -1.8,-3.9 -3.9,-3.9zm-26.9,7.7l0,10.4l-10.7,0l10.7,-10.4zm26.9,51l-41,0l0,-36.9l16.7,0c0.7,0 1.3,-0.6 1.3,-1.3l0,-16.6l23,0l0,54.8z" id="svg_144"/>
   <path class="st2" d="m445.6,87.5l-41,0c-2.7,0 -4.9,-2.2 -4.9,-4.9l0,-37c0,-1.3 0.5,-2.6 1.4,-3.5l17.7,-17.7c0.9,-0.9 2.2,-1.4 3.5,-1.4l23.3,0c2.7,0 4.9,2.2 4.9,4.9l0,54.7c0,2.7 -2.2,4.9 -4.9,4.9zm-23.3,-62.6c-0.8,0 -1.5,0.3 -2.1,0.9l-17.7,17.7c-0.5,0.5 -0.8,1.3 -0.8,2.1l0,37c0,1.6 1.3,2.9 2.9,2.9l41,0c1.6,0 2.9,-1.3 2.9,-2.9l0,-54.8c0,-1.6 -1.3,-2.9 -2.9,-2.9l-23.3,0zm24.3,58.7l-43,0l0,-38.9l17.7,0c0.2,0 0.3,-0.1 0.3,-0.3l0,-17.6l25,0l0,56.8zm-41.1,-2l39,0l0,-52.8l-21,0l0,15.5c0,1.3 -1,2.3 -2.3,2.3l-15.7,0l0,35zm14.2,-38.5l-14.1,0l14.1,-13.8l0,13.8zm-9.2,-2l7.2,0l0,-7.1l-7.2,7.1z" id="svg_145"/>
  </g>
  <g id="svg_146" transform="matrix(1 0 0 1 0 0)">
   <path class="st2" d="m492.5,52.6c-0.7,0 -1.3,0.6 -1.3,1.3c0,0.7 0.6,1.3 1.3,1.3l28.2,0c0.7,0 1.3,-0.6 1.3,-1.3c0,-0.7 -0.6,-1.3 -1.3,-1.3l-28.2,0z" id="svg_147"/>
  </g>
  <g id="svg_148">
   <path class="st2" d="m355.5,-55.8l14.1,0c0.7,0 1.3,-0.6 1.3,-1.3c0,-0.7 -0.6,-1.3 -1.3,-1.3l-14.1,0c-0.7,0 -1.3,0.6 -1.3,1.3c0,0.7 0.5,1.3 1.3,1.3z" id="svg_149"/>
  </g>
  <g id="svg_150"/>
  <g id="svg_152">
   <path class="st2" d="m410.5,69.1l28.2,0c0.7,0 1.3,-0.6 1.3,-1.3c0,-0.7 -0.6,-1.3 -1.3,-1.3l-28.2,0c-0.7,0 -1.3,0.6 -1.3,1.3c0,0.7 0.5,1.3 1.3,1.3z" id="svg_153"/>
  </g>
  <g id="svg_154">
   <path class="st2" d="m439.1,73.5l-14.1,0c-0.7,0 -1.3,0.6 -1.3,1.3c0,0.7 0.6,1.3 1.3,1.3l14.1,0c0.7,0 1.3,-0.6 1.3,-1.3c0,-0.7 -0.5,-1.3 -1.3,-1.3z" id="svg_155"/>
  </g>
  <g id="svg_156">
   <path class="st2" d="m479.1,-37.5l-7.7,0c-0.7,0 -1.3,0.6 -1.3,1.3c0,0.7 0.6,1.3 1.3,1.3l7.7,0c0.7,0 1.3,-0.6 1.3,-1.3c0,-0.7 -0.5,-1.3 -1.3,-1.3z" id="svg_157"/>
  </g>
  <g id="svg_158">
   <g id="svg_159">
    <path class="st2" d="m94.3,147.4l-35.5,0c-0.7,0 -1.3,-0.6 -1.3,-1.3l0,-35.4c0,-0.7 0.6,-1.3 1.3,-1.3c0.7,0 1.3,0.6 1.3,1.3l0,34.1l34.2,0c0.7,0 1.3,0.6 1.3,1.3c0.1,0.7 -0.5,1.3 -1.3,1.3z" id="svg_160"/>
   </g>
  </g>
  <g id="svg_161">
   <polyline class="st1" id="svg_162" points="284.9,153.9 306.9,155.2 306.9,160.9 317.6,160.9 316.2,215.8 274.8,215.8 274.8,161.9  "/>
  </g>
  <g id="svg_163" transform="matrix(1 0 0 1 0 0)">
   <g id="svg_164">
    <path class="st1" d="m94.3,141.2l-29.3,0c-0.7,0 -1.3,-0.6 -1.3,-1.3l0,-29.2c0,-0.7 0.6,-1.3 1.3,-1.3l29.4,0c0.7,0 1.3,0.6 1.3,1.3l0,29.2c0,0.7 -0.6,1.3 -1.4,1.3z" id="svg_165"/>
    <path class="st2" d="m94.3,142.2l-29.3,0c-1.3,0 -2.3,-1.1 -2.3,-2.3l0,-29.2c0,-1.3 1.1,-2.3 2.3,-2.3l29.4,0c1.3,0 2.3,1.1 2.3,2.3l0,29.2c0,1.2 -1.1,2.3 -2.4,2.3zm-29.3,-32c-0.2,0 -0.3,0.2 -0.3,0.3l0,29.2c0,0.2 0.2,0.3 0.3,0.3l29.4,0c0.2,0 0.3,-0.2 0.3,-0.3l0,-29.2c0,-0.2 -0.2,-0.3 -0.3,-0.3l-29.4,0z" id="svg_166"/>
   </g>
  </g>
  <g id="svg_167">
   <path class="st1" d="m278.3,145.2c-0.3,0 -0.5,-0.1 -0.7,-0.3l-13.3,-13.3c-0.4,-0.4 -0.4,-1 0,-1.4l13.3,-13.3c0.4,-0.4 1,-0.4 1.4,0l2.9,2.9c0.3,-0.6 0.7,-1.1 1.1,-1.6c1.1,-1.1 2.5,-1.6 4,-1.6c1.5,0 2.9,0.6 4,1.6c2.2,2.2 2.2,5.7 0,7.9c-0.5,0.5 -1,0.8 -1.6,1.1l2.9,2.9c0.2,0.2 0.3,0.4 0.3,0.7c0,0.3 -0.1,0.5 -0.3,0.7l-4.1,4.1c-0.3,0.3 -0.7,0.4 -1.1,0.2c-0.4,-0.1 -0.6,-0.5 -0.6,-0.9c-0.1,-0.9 -0.4,-1.7 -1,-2.3c-0.7,-0.7 -1.6,-1.1 -2.5,-1.1c-1,0 -1.9,0.4 -2.5,1.1c-0.7,0.7 -1.1,1.6 -1.1,2.5c0,1 0.4,1.9 1.1,2.5c0.6,0.6 1.4,1 2.3,1c0.4,0 0.7,0.3 0.9,0.6c0.1,0.4 0,0.8 -0.2,1.1l-4.2,4.2c-0.5,0.6 -0.7,0.7 -1,0.7z" id="svg_168"/>
   <path class="st2" d="m278.3,146.2c-0.5,0 -1,-0.2 -1.4,-0.6l-13.3,-13.3c-0.8,-0.8 -0.8,-2 0,-2.8l13.3,-13.3c0.8,-0.8 2.1,-0.8 2.8,0l2,2c0.2,-0.2 0.4,-0.5 0.6,-0.7c1.2,-1.2 2.9,-1.9 4.7,-1.9c1.8,0 3.4,0.7 4.7,1.9c1.2,1.2 1.9,2.9 1.9,4.7s-0.7,3.4 -1.9,4.7c-0.2,0.2 -0.4,0.4 -0.7,0.6l2,2c0.4,0.4 0.6,0.9 0.6,1.4c0,0.5 -0.2,1 -0.6,1.4l-4.1,4.1c-0.5,0.5 -1.4,0.7 -2.1,0.5c-0.7,-0.3 -1.2,-1 -1.3,-1.7c0,-0.6 -0.3,-1.2 -0.8,-1.6c-1,-1 -2.7,-1 -3.7,0c-0.5,0.5 -0.8,1.1 -0.8,1.8c0,0.7 0.3,1.3 0.8,1.8c0.4,0.4 1,0.7 1.7,0.8c0.8,0.1 1.4,0.6 1.7,1.3c0.3,0.7 0.1,1.6 -0.5,2.1l-4.2,4.2c-0.4,0.4 -0.9,0.6 -1.4,0.6zm0,-28.5l-13.3,13.2l13.3,13.2l4.2,-4.2c-1.1,-0.1 -2.1,-0.6 -2.9,-1.3c-0.9,-0.9 -1.3,-2 -1.3,-3.3c0,-1.2 0.5,-2.4 1.3,-3.3c0.9,-0.9 2,-1.3 3.3,-1.3c1.2,0 2.4,0.5 3.3,1.3c0.8,0.8 1.2,1.8 1.3,2.9l4.1,-4.1l-3.9,-3.9l1.3,-0.6c0.5,-0.2 0.9,-0.5 1.3,-0.9c0.9,-0.9 1.3,-2 1.3,-3.3c0,-1.2 -0.5,-2.4 -1.3,-3.2c-0.9,-0.9 -2,-1.3 -3.2,-1.3c-1.2,0 -2.4,0.5 -3.2,1.3c-0.4,0.4 -0.7,0.8 -0.9,1.3l-0.6,1.3l-4.1,-3.8z" id="svg_169"/>
  </g>
  <g id="svg_170">
   <path class="st1" d="m318.3,158.7l-8,0l0,-3.2c0,-1.3 -0.9,-2.3 -2,-2.3l-23.6,0c-1.1,0 -2,1 -2,2.3l0,3.2l-8.5,0c-1.1,0 -2,1 -2,2.3l0,55.6c0,1.3 0.9,2.3 2,2.3l44,0c1.1,0 2,-1 2,-2.3l0,-55.6c0.1,-1.2 -0.8,-2.3 -1.9,-2.3zm-31.5,-0.9l19.6,0l0,3.2l0,4.1l-19.6,0l0,-4.1l0,-3.2zm29.3,56.5l-39,0l0,-51l5.7,0l0,4.1c0,1.3 0.9,2.3 2,2.3l23.6,0c1.1,0 2,-1 2,-2.3l0,-4.1l5.8,0l0,51l-0.1,0z" id="svg_171"/>
   <path class="st2" d="m318.3,219.9l-44,0c-1.6,0 -3,-1.5 -3,-3.3l0,-55.6c0,-1.8 1.3,-3.3 3,-3.3l7.5,0l0,-2.2c0,-1.8 1.3,-3.3 3,-3.3l23.6,0c1.6,0 3,1.5 3,3.3l0,2.2l7,0c1.6,0 3,1.5 3,3.3l0,55.6c-0.1,1.8 -1.4,3.3 -3.1,3.3zm-44,-60.2c-0.5,0 -1,0.6 -1,1.3l0,55.6c0,0.7 0.4,1.3 1,1.3l44,0c0.5,0 1,-0.6 1,-1.3l0,-55.6c0,-0.7 -0.4,-1.3 -1,-1.3l-9,0l0,-4.2c0,-0.7 -0.4,-1.3 -1,-1.3l-23.6,0c-0.5,0 -1,0.6 -1,1.3l0,4.2l-9.4,0zm42.8,55.6l-41,0l0,-53l7.7,0l0,5.1c0,0.7 0.4,1.3 1,1.3l23.6,0c0.5,0 1,-0.6 1,-1.3l0,-5.1l7.8,0l0,53l-0.1,0zm-39,-2l37,0l0,-49l-3.8,0l0,3.1c0,1.8 -1.3,3.3 -3,3.3l-23.6,0c-1.6,0 -3,-1.5 -3,-3.3l0,-3.1l-3.7,0l0,49l0.1,0zm29.3,-47.2l-21.6,0l0,-9.3l21.6,0l0,9.3zm-19.6,-2l17.6,0l0,-5.3l-17.6,0l0,5.3z" id="svg_172"/>
  </g>
  <rect fill="#610eba" height="22" id="svg_173" stroke="#000000" transform="matrix(1 0 0 1 0 0)" width="12" x="272.5" y="46.8"/>
  <rect fill="#00ffff" height="35" id="svg_174" stroke="#f2e8e8" transform="matrix(1 0 0 1 0 0)" width="15" x="290.5" y="34.8"/>
  <rect fill="#610eba" height="50" id="svg_175" stroke="#000000" transform="matrix(1 0 0 1 0 0)" width="15" x="310.5" y="19.8"/>
  <text fill="#000000" font-family="Helvetica" font-size="18" font-weight="normal" id="svg_177" stroke="#f9f9f9" stroke-width="0" text-anchor="middle" transform="matrix(0.451655 0 0 0.836865 15.5223 -7.63547)" x="620.67" xml:space="preserve" y="242.1">rent paid</text>
  <use id="svg_179" transform="matrix(3.26667 0 0 3.26667 -158 -36)" x="0" xlink:href="#svg_178" y="0"/>
  <line fill="none" id="svg_185" stroke="#000000" x1="-450.5" x2="-454.5" y1="-62.2" y2="-58.2"/>
  <rect fill="#7f00ff" height="27" id="svg_193" stroke="#000000" transform="matrix(1 0 0 1 0 0)" width="147" x="3.5" y="200.8"/>
  <text fill="#ffffff" font-family="Helvetica" font-size="13" id="svg_18" stroke="#000000" stroke-width="0" text-anchor="middle" transform="matrix(1 0 0 1 0 0)" x="72.5" xml:space="preserve" y="216.8">request maintenance</text>
  <g id="svg_99" transform="matrix(1 0 0 1 0 0)">
   <path class="st4" d="m664.6,-17.9c0,0 0.1,0 0.1,0.1c0.1,-5.2 0.1,-10.4 0.1,-15.6c0,-7.1 11,-7.1 11,0c0,3 0,6.1 0,9.1c4,-0.8 8.2,0.4 12.2,1.6c1.1,0.3 2,1 2.7,1.8c2.5,-4 4,-8.8 4,-13.9c0,-14.5 -11.7,-26.2 -26.2,-26.2c-14.5,0 -26.2,11.7 -26.2,26.2c0,10.2 5.8,19 14.3,23.4c-1.8,-4.7 3.7,-8.6 8,-6.5z" fill="#7f00ff" id="svg_136"/>
  </g>
  <text fill="#000000" font-family="Helvetica" font-size="13" id="svg_137" stroke="#f2e8e8" stroke-width="0" text-anchor="middle" transform="matrix(1 0 0 1 0 0)" x="123.5" xml:space="preserve" y="73.8">Raf</text>
  <text fill="#7f007f" font-family="Helvetica" font-size="13" id="svg_138" stroke="#f2e8e8" stroke-width="0" text-anchor="middle" x="141.5" xml:space="preserve" y="73.8">iki</text>
  <text fill="#7f007f" font-family="Helvetica" font-size="13" id="svg_151" stroke="#f2e8e8" stroke-width="0" text-anchor="middle" transform="matrix(1 0 0 0.933333 537 93.5867)" x="-321.5" xml:space="preserve" y="31.51">pay</text>
 </g>
</svg>